<svg xmlns="http://www.w3.org/2000/svg" width="220" height="40" viewBox="0 0 220 40" fill="none">
  <rect width="220" height="40" fill="transparent"/>
  <g transform="translate(6,6)">
    <path d="M17 6.5c2.2 2.4 4.6 3.8 7.6 4.2v4.3c-2.7-.1-5-.7-7.1-1.9v8.1c0 4.9-3.3 8.2-8.1 8.2C4.7 29.4 1 25.8 1 21.2c0-4.9 3.7-8.5 8.7-8.5.5 0 1 .1 1.5.2v4.4c-.5-.2-.9-.2-1.4-.2-2.4 0-4.1 1.7-4.1 4.1 0 2.2 1.7 3.9 3.9 3.9 2.4 0 3.9-1.7 3.9-4.4V2H17v4.5z" fill="#25F4EE"/>
    <path d="M19 4.5c2.2 2.4 4.6 3.8 7.6 4.2V13c-2.7-.1-5-.7-7.1-1.9v8.1c0 4.9-3.3 8.2-8.1 8.2-1.8 0-3.4-.5-4.8-1.4 1.1.5 2.2.8 3.5.8 2.4 0 3.9-1.7 3.9-4.4V4.5H19z" fill="#FE2C55"/>
    <path d="M18 5.5c2 2 4.2 3.2 6.8 3.6v3.1c-2.4-.1-4.4-.7-6.4-1.8v8.1c0 4.5-3 7.6-7.4 7.6-3.9 0-6.9-3-6.9-6.8 0-4.1 3.2-7.1 7.3-7.1.4 0 .8 0 1.2.1v3.2c-.4-.1-.8-.2-1.2-.2-2.3 0-4 1.6-4 3.9 0 2.2 1.6 3.8 3.8 3.8 2.3 0 3.8-1.6 3.8-4.3V1.7H18v3.8z" fill="white"/>
  </g>
  <text x="42" y="27" fill="white" font-family="Arial, Helvetica, sans-serif" font-size="34" font-weight="700" letter-spacing="-0.8">TikTok</text>
  <text x="151" y="27" fill="white" font-family="Arial, Helvetica, sans-serif" font-size="34" font-weight="400" letter-spacing="-0.6">Shop</text>
</svg>
