<svg xmlns="http://www.w3.org/2000/svg" width="180" height="32" viewBox="0 0 180 32" fill="none">
  <rect width="180" height="32" fill="transparent"/>
  <g transform="translate(7,4)">
    <path d="M11.7 2.6c1.8 2 3.8 3.1 6.2 3.5v3.4c-2.1-.1-4.1-.7-5.9-1.6v7c0 3.9-2.6 6.6-6.4 6.6C2.4 21.5 0 19.1 0 16c0-3.7 2.8-6.4 6.6-6.4.4 0 .8 0 1.1.1v3.5c-.4-.1-.7-.1-1.1-.1-1.8 0-3.1 1.2-3.1 3s1.3 3 3 3c1.9 0 3.1-1.2 3.1-3.3V0h2.1v2.6z" fill="#25F4EE"/>
    <path d="M13.2 1.3c1.8 2 3.8 3.1 6.2 3.5v3.4c-2.2-.1-4.2-.7-6-1.6v7c0 3.9-2.6 6.6-6.4 6.6-.8 0-1.6-.1-2.3-.4 1.9.1 3.1-1.2 3.1-3.3V1.3h5.4z" fill="#FE2C55"/>
    <path d="M12.4 2c1.6 1.6 3.4 2.6 5.4 2.9v2.3c-1.9-.1-3.6-.7-5.2-1.5v6.8c0 3.6-2.4 6.1-5.9 6.1-3.1 0-5.6-2.4-5.6-5.5 0-3.3 2.6-5.8 5.9-5.8.3 0 .6 0 .9.1V10c-.3-.1-.6-.1-.9-.1-1.8 0-3.1 1.2-3.1 3 0 1.8 1.3 3 3 3 1.9 0 3-1.3 3-3.4V0.6h2.5V2z" fill="white"/>
  </g>
  <text x="34" y="22.2" fill="#E8E8E8" font-family="Inter, Segoe UI, Arial, Helvetica, sans-serif" font-size="19" font-weight="700" letter-spacing="-0.2">TikTok</text>
  <text x="103.6" y="22.2" fill="#D6D6D6" font-family="Inter, Segoe UI, Arial, Helvetica, sans-serif" font-size="19" font-weight="450" letter-spacing="-0.15">Shop</text>
</svg>
